PathFileType	4	(X/Y/Z)	Patient4_TMGait_0pt7_02_left_35.trc.trc
DataRate	CameraRate	NumFrames	NumMarkers	Units	OrigDataRate	OrigDataStartFrame	OrigNumFrames
86.419753086420	86.419753086420	4	33	mm	86.419753086420	1	       141
Frame#	Time	Sacral			L.Shoulder			Chest			R.Shoulder			Neck			R.ASIS			L.ASIS			R.Thigh.Superior			R.Thigh.Lateral			R.Thigh.Inferior			R.Patella			L.Thigh.Superior			L.Thigh.Lateral			L.Thigh.Inferior			L.Patella			L.Shank.Superior			L.Shank.Lateral			L.Shank.Inferior			R.Shank.Superior			R.Shank.Lateral			R.Shank.Inferior			R.Heel			R.Midfoot.Superior			R.Midfoot.Lateral			R.Toe			L.Heel			L.Midfoot.Lateral			L.Midfoot.Superior			L.Toe			L.Elbow			L.Wrist			R.Elbow			R.Wrist			
		X1	Y1	Z1	X2	Y2	Z2	X3	Y3	Z3	X4	Y4	Z4	X5	Y5	Z5	X6	Y6	Z6	X7	Y7	Z7	X8	Y8	Z8	X9	Y9	Z9	X10	Y10	Z10	X11	Y11	Z11	X12	Y12	Z12	X13	Y13	Z13	X14	Y14	Z14	X15	Y15	Z15	X16	Y16	Z16	X17	Y17	Z17	X18	Y18	Z18	X19	Y19	Z19	X20	Y20	Z20	X21	Y21	Z21	X22	Y22	Z22	X23	Y23	Z23	X24	Y24	Z24	X25	Y25	Z25	X26	Y26	Z26	X27	Y27	Z27	X28	Y28	Z28	X29	Y29	Z29	X30	Y30	Z30	X31	Y31	Z31	X32	Y32	Z32	X33	Y33	Z33	

1	40.030000000000	821.077032888339	1023.693807415623	518.363304622250	1033.057219516644	1425.022308298397	312.082059486246	1142.382888191018	1345.050056516730	465.878167896348	1087.057346840240	1436.472049049095	641.773718024205	1059.771062904610	1487.603215955779	462.255578355631	1047.910309535382	939.371879468637	626.508682790588	1019.902166623146	957.533622711628	353.081100054442	1081.845933797251	741.162143919553	602.075526408740	997.213540041073	636.795672992114	660.434711511604	1072.704604399498	583.107044277104	579.353181999406	1073.213431704545	496.965612718263	585.051534961633	1100.277958146623	783.083004906763	385.704458344086	1059.419240120430	658.626045988099	304.197427499396	1163.600127201077	594.686529090390	368.565271684358	1175.243614110780	502.424874971499	359.980801704795	1101.530447004950	439.524306821940	350.942188381456	957.236173124756	414.696089748649	298.910396920168	927.863331600444	288.570972345422	352.532953866386	1049.008069167342	409.408182903440	592.965928032652	981.260560016816	303.447690176210	654.456665915108	1027.473797742271	210.188892571414	590.235942174035	897.977211406193	43.605082863283	559.779461325630	1070.591896536350	98.118167541357	595.373347938934	982.107557420160	37.068591405247	632.436488343898	1190.544747287728	42.838593347198	619.295114898785	729.956293192819	244.313177415774	384.418311510383	785.201932619841	196.678672302406	303.869267691617	889.497743794794	192.404124607638	328.817897589115	955.537430276218	73.311396226082	297.568438794342	934.737822745728	1082.350698921263	217.021035880788	1076.605412933245	859.067813442516	212.900645381123	1010.747854962327	1112.204730933334	798.193517630845	1114.759480200075	871.912412677527	774.494820208866	
2	40.041571428571	818.931377729503	1024.147393742287	519.884363235149	1030.898929639224	1424.419076395632	312.251391855351	1141.001802506694	1344.469996963844	465.463822087570	1087.073970615223	1436.255649442863	641.615147259061	1058.773888264436	1487.258347296604	462.152756927515	1045.555839670214	939.031313916525	626.755120918504	1017.102566573020	957.623575931446	353.622868209933	1077.956687033914	740.415390719654	602.417438597879	992.865834470628	636.664731621514	661.139313881995	1067.479625275890	582.396639951240	579.734762270005	1067.092779952182	496.421669680744	585.340479827937	1100.277691040603	787.795755407885	387.746014251637	1063.926440187683	662.932969871858	304.732794543701	1169.034284382560	601.507472565069	369.866159822911	1183.451265498597	509.682467902120	360.820632114098	1111.758396102318	444.756307988501	351.497959679307	968.425577997610	415.394013958754	299.500270282176	943.347006054141	288.324132341778	352.838105220511	1042.456391621987	409.004262654834	593.217723319798	974.302288779861	303.327785389067	654.764800849036	1019.739639459075	209.863349402642	590.282050273821	889.418959706176	43.551386306442	559.804063386803	1062.005345143320	98.023663769893	595.377183293178	973.558904772411	37.030399559374	632.500351974365	1181.989083073511	42.743893936607	619.382945707574	747.332921157903	237.472094505666	384.845676264458	803.938783512192	191.893815615117	304.074514698704	908.292544055234	191.130004953187	328.793352259560	978.140228837877	74.507843560428	297.142585516139	929.089237803473	1082.044896620444	219.567448735379	1051.315374858350	850.266075493170	216.254361403115	1019.770072167740	1111.567321420123	800.080793597141	1138.930684435959	881.519720421098	770.953142468869	
3	40.053142857143	816.800750999803	1024.574981222648	521.348230931047	1028.772851249843	1423.815179805438	312.403811685686	1139.631730578056	1343.887108873511	465.046933301951	1087.064070457590	1436.025163564549	641.451086285813	1057.775937483245	1486.905552641149	462.041212211420	1043.266081921949	938.703469542140	627.005524468929	1014.341099774383	957.679868927275	354.144550213154	1074.149423301303	739.681484816740	602.733909325306	988.598069970436	636.527913189819	661.815033214713	1062.353649306073	581.685540754191	580.097482783712	1061.071148130298	495.877817820226	585.612097495241	1100.220633689708	792.384812637047	389.711474126304	1068.274200552051	667.155874998144	305.231333135677	1174.281453369553	608.210183439093	371.108881000948	1191.429181524896	516.838536142358	361.600382774592	1121.775166564170	449.906249273238	351.991340380411	979.407243846508	415.974035128209	300.067973572737	958.691249984827	287.971696822570	353.097054372488	1036.011070791778	408.595057987281	593.456294021858	967.450868421667	303.205236894866	655.061467093492	1012.111410230535	209.533717728887	590.321259639224	880.966724942609	43.499355512001	559.828944317521	1053.525080578717	97.930018401757	595.380237624818	965.113562006239	36.992364666621	632.562491942196	1173.540153413508	42.647440678974	619.465297759163	764.623595694469	230.485726628749	385.275658900741	822.558855194323	186.979567883907	304.256585272639	926.965957908557	189.748425157912	328.722237074384	1000.634620980060	75.629650884961	296.621461202028	923.504770812755	1081.744604692632	222.075655302990	1026.310680382606	841.928090940388	219.575272105526	1028.688076791975	1110.937945299845	801.877761845917	1162.800461129053	891.339593373646	767.278500069265	
4	40.064714285714	814.693237619170	1024.959362447733	522.693561347337	1026.703103787474	1423.214765495789	312.516248141847	1138.276724322350	1343.301125545649	464.615894324976	1086.999419228801	1435.770257221182	641.266851243817	1056.769851696462	1486.540416589479	461.907130410223	1041.082764640235	938.400683059300	627.257925835928	1011.647071260340	957.670521069045	354.616206907366	1070.453465828443	738.962676306673	603.002579718629	984.418083331310	636.383899951123	662.434125673716	1057.344362495223	580.965694872517	580.429003446263	1055.160488144997	495.332674231281	585.853154684971	1100.032640050404	796.719278503825	391.520572497997	1072.276844104841	671.187077355653	305.659558991681	1179.131995425887	614.648369470438	372.227656782062	1198.928513445314	523.780859799271	362.269221247060	1131.383186363195	454.884673975455	352.378904435078	990.078840222231	416.258930833309	300.559406269494	973.898052685985	287.380534728134	353.261551997682	1029.684088144316	408.177003989490	593.667910187349	960.720425956786	303.081027915295	655.336624035510	1004.603935617651	209.200611394982	590.347836735136	872.637549568050	43.451503034375	559.854350812670	1045.168122269427	97.838409916334	595.381760206714	956.786438286202	36.955605470356	632.621144384657	1165.214612117567	42.548322926261	619.537790899516	781.966516403053	223.107576249271	385.649563258925	841.206861932494	181.747649405304	304.365956684731	945.603785150978	188.144250576926	328.568800895643	1023.157332440845	76.672218757523	295.984600570815	917.973165370488	1081.494089289527	224.500538636846	1001.769527644701	834.518612790043	222.861353600597	1037.510391762129	1110.328573246789	803.441410886329	1186.159246734008	901.791716016038	763.257607897730	
